<?xml version="1.0" standalone="no"?>
<!DOCTYPE svg PUBLIC "-//W3C//DTD SVG 20010904//EN"
 "http://www.w3.org/TR/2001/REC-SVG-20010904/DTD/svg10.dtd">
<svg version="1.0" xmlns="http://www.w3.org/2000/svg"
 width="615.000000pt" height="432.000000pt" viewBox="0 0 615.000000 432.000000"
 preserveAspectRatio="xMidYMid meet">

<g transform="translate(0.000000,432.000000) scale(0.100000,-0.100000)"
fill="#000000" stroke="none">
<path d="M0 2160 l0 -2160 3075 0 3075 0 0 2160 0 2160 -3075 0 -3075 0 0
-2160z m3275 1244 c259 -45 512 -180 698 -373 484 -502 487 -1286 8 -1784
-225 -233 -495 -365 -819 -399 -136 -14 -289 -1 -439 38 -499 129 -880 556
-953 1069 -15 107 -12 312 6 406 101 534 514 948 1040 1043 109 20 347 20 459
0z"/>
<path d="M2929 3290 c-414 -37 -802 -330 -959 -723 -66 -165 -74 -213 -74
-427 0 -179 2 -203 27 -293 51 -190 162 -387 294 -521 194 -197 439 -315 722
-347 265 -30 569 56 798 225 196 143 342 346 418 581 153 470 -31 1012 -441
1300 -156 109 -369 188 -555 205 -115 10 -109 10 -230 0z m-389 -995 c0 -62 1
-65 19 -55 39 20 91 12 122 -19 28 -29 29 -32 29 -135 l0 -106 -35 0 -35 0 0
94 c0 105 -8 119 -62 114 l-33 -3 -3 -102 -3 -103 -34 0 -35 0 0 190 0 190 35
0 35 0 0 -65z m882 -45 l3 -110 43 55 c37 48 48 55 78 55 19 0 34 -3 34 -7 0
-5 -23 -35 -50 -68 l-50 -59 22 -26 c13 -14 40 -44 62 -67 l40 -43 -41 0 c-38
0 -46 5 -92 57 l-51 57 0 -57 0 -57 -35 0 -35 0 0 190 0 190 35 0 34 0 3 -110z
m-1047 81 c22 -10 46 -25 54 -35 12 -14 11 -20 -9 -41 l-23 -24 -32 24 c-50
39 -113 35 -159 -9 -30 -28 -36 -40 -36 -75 0 -56 22 -95 64 -115 57 -27 119
-15 148 28 5 7 17 1 33 -15 l26 -26 -35 -31 c-44 -38 -92 -48 -160 -33 -139
31 -199 195 -110 301 57 67 157 89 239 51z m1333 -168 l2 -183 -40 0 -40 0 0
178 c0 98 3 182 7 186 4 4 21 6 38 4 l30 -3 3 -182z m-749 69 c46 -23 71 -59
74 -107 l2 -40 -102 -3 c-57 -1 -103 -7 -103 -12 0 -15 43 -40 68 -40 13 0 32
5 43 11 16 8 25 7 40 -7 26 -23 24 -28 -16 -47 -67 -32 -144 -14 -185 42 -85
120 47 271 179 203z m331 -8 c19 -19 19 -20 0 -44 -18 -23 -19 -24 -38 -7 -45
40 -112 2 -112 -64 0 -29 6 -42 26 -58 32 -25 52 -26 82 -5 21 15 25 15 43 -2
26 -23 24 -31 -13 -54 -41 -25 -81 -25 -134 -1 -96 44 -98 191 -3 243 43 24
122 20 149 -8z m542 15 c3 -9 9 -9 25 0 28 14 65 14 97 0 40 -19 56 -66 56
-168 l0 -91 -35 0 -35 0 0 86 c0 98 -10 124 -46 124 -57 0 -64 -12 -64 -115
l0 -95 -35 0 -35 0 0 128 c0 71 3 132 7 135 11 11 61 8 65 -4z"/>
<path d="M2852 2174 c-36 -25 -25 -34 43 -34 36 0 65 4 65 9 0 15 -42 41 -65
41 -11 0 -31 -7 -43 -16z"/>
</g>
</svg>
