<?xml version="1.0" standalone="no"?>
<!DOCTYPE svg PUBLIC "-//W3C//DTD SVG 20010904//EN"
 "http://www.w3.org/TR/2001/REC-SVG-20010904/DTD/svg10.dtd">
<svg version="1.0" xmlns="http://www.w3.org/2000/svg"
 width="456.000000pt" height="307.000000pt" viewBox="0 0 456.000000 307.000000"
 preserveAspectRatio="xMidYMid meet">

<g transform="translate(0.000000,307.000000) scale(0.100000,-0.100000)"
fill="#000000" stroke="none">
<path d="M2585 2429 c-220 -134 -453 -343 -616 -554 l-54 -71 -60 59 c-33 32
-72 66 -86 77 l-27 20 -77 -111 -77 -110 82 -76 c45 -42 122 -131 172 -197 49
-67 93 -122 97 -124 4 -1 27 33 51 75 110 197 256 382 420 536 82 78 266 217
354 268 32 19 59 38 60 43 1 16 -119 226 -129 226 -6 0 -56 -27 -110 -61z"/>
<path d="M1523 1110 c-23 -9 -23 -10 -23 -233 0 -242 2 -252 52 -245 22 3 23
7 28 133 l5 130 40 3 c66 4 69 -2 75 -140 l5 -123 35 0 35 0 3 105 c5 175 -23
224 -131 227 l-62 1 -3 76 c-3 82 -8 87 -59 66z"/>
<path d="M2543 1110 c-23 -9 -23 -10 -23 -239 l0 -231 25 -6 c46 -12 55 0 55
71 0 40 4 65 11 65 14 0 65 -55 96 -102 19 -32 29 -38 58 -38 18 0 36 4 40 9
7 13 -44 87 -94 135 l-40 39 64 71 65 71 -42 3 c-40 3 -45 1 -93 -53 -27 -30
-53 -55 -57 -55 -5 0 -8 61 -8 135 0 147 0 148 -57 125z"/>
<path d="M1220 1064 c-19 -8 -50 -29 -68 -47 -78 -76 -81 -244 -5 -328 44 -49
89 -62 186 -57 86 4 111 18 96 55 -8 22 -12 22 -82 17 -122 -11 -167 29 -167
146 0 124 62 174 181 149 28 -6 52 -9 54 -7 2 1 6 15 10 31 6 24 3 29 -29 42
-45 19 -131 19 -176 -1z"/>
<path d="M2870 863 c0 -115 4 -214 9 -221 5 -8 21 -12 37 -10 l29 3 3 218 2
217 -40 0 -40 0 0 -207z"/>
<path d="M1933 950 c-54 -28 -78 -75 -78 -155 0 -112 56 -165 173 -165 79 0
101 11 95 44 -5 24 -8 25 -68 24 -69 -2 -115 18 -115 52 0 19 7 20 100 20 114
0 117 2 105 76 -10 69 -56 115 -121 121 -36 3 -60 -1 -91 -17z m113 -65 c14
-14 24 -31 21 -38 -4 -12 -98 -22 -123 -13 -21 8 3 53 35 65 38 14 40 13 67
-14z"/>
<path d="M2305 956 c-85 -38 -119 -147 -75 -243 28 -63 69 -84 155 -81 l70 3
3 32 3 33 -53 -3 c-95 -4 -137 51 -109 144 14 47 34 59 99 59 43 0 50 3 56 23
4 14 0 26 -11 35 -22 16 -100 15 -138 -2z"/>
<path d="M3095 963 c-16 -3 -33 -10 -37 -16 -11 -17 -10 -289 1 -305 5 -8 21
-12 37 -10 l29 3 3 133 3 132 43 0 c67 0 75 -15 78 -150 l3 -115 35 0 35 0 3
90 c4 124 -4 170 -38 208 -25 29 -33 31 -96 33 -38 1 -82 0 -99 -3z"/>
</g>
</svg>
