<?xml version="1.0" standalone="no"?>
<!DOCTYPE svg PUBLIC "-//W3C//DTD SVG 20010904//EN"
 "http://www.w3.org/TR/2001/REC-SVG-20010904/DTD/svg10.dtd">
<svg version="1.0" xmlns="http://www.w3.org/2000/svg"
 width="429.000000pt" height="264.000000pt" viewBox="0 0 429.000000 264.000000"
 preserveAspectRatio="xMidYMid meet">

<g transform="translate(0.000000,264.000000) scale(0.100000,-0.100000)"
fill="#000000" stroke="none">
<path d="M1950 2513 c-270 -44 -471 -141 -655 -314 -168 -159 -268 -327 -332
-554 -37 -133 -43 -369 -14 -513 76 -366 293 -654 618 -819 338 -172 710 -175
1048 -8 667 330 860 1175 403 1766 -220 285 -566 452 -927 448 -64 -1 -127 -4
-141 -6z m290 -18 c156 -13 365 -92 517 -197 145 -99 296 -273 376 -433 42
-85 84 -216 102 -319 98 -576 -239 -1122 -800 -1299 -181 -56 -438 -62 -628
-13 -124 32 -297 116 -403 195 -380 283 -549 784 -418 1239 129 449 544 795
999 831 97 8 119 8 255 -4z"/>
<path d="M1980 2449 c-368 -39 -705 -272 -872 -604 -36 -71 -86 -228 -100
-310 -15 -91 -14 -292 1 -375 44 -230 150 -431 311 -591 207 -206 482 -319
774 -319 304 1 572 109 780 315 133 131 218 270 274 447 40 122 53 207 54 333
2 496 -315 923 -789 1064 -84 25 -280 54 -332 50 -9 -1 -54 -6 -101 -10z
m-285 -966 c-4 -31 -9 -63 -13 -71 -5 -13 -2 -13 18 1 14 9 36 17 51 17 42 0
52 -20 44 -95 -5 -47 -4 -65 5 -65 6 0 10 -10 8 -22 -2 -18 -11 -24 -35 -26
-43 -4 -56 22 -47 94 4 35 3 54 -4 54 -21 0 -50 -52 -57 -100 -6 -47 -9 -50
-36 -50 -35 0 -36 5 -13 157 11 76 13 108 5 111 -12 4 -15 35 -4 45 3 4 24 7
46 7 l39 0 -7 -57z m655 36 c0 -11 -5 -52 -11 -90 -6 -39 -8 -73 -5 -77 11
-11 30 18 31 46 0 26 3 27 53 30 50 3 52 2 52 -22 0 -15 -6 -26 -12 -26 -7 -1
-26 -11 -41 -24 -28 -23 -29 -24 -13 -55 9 -17 23 -31 31 -31 9 0 15 -10 15
-25 0 -20 -5 -25 -26 -25 -37 0 -60 15 -74 50 -17 41 -27 38 -35 -10 -6 -36
-10 -40 -36 -40 -35 0 -34 -3 -13 150 11 81 13 115 5 118 -12 4 -15 35 -4 45
3 4 24 7 45 7 32 0 38 -3 38 -21z m-783 -31 c33 -30 26 -61 -14 -69 -26 -5
-33 -2 -42 17 -14 32 -54 31 -86 0 -28 -28 -42 -103 -26 -135 15 -27 74 -29
93 -3 11 15 19 17 46 10 27 -7 31 -12 23 -26 -28 -53 -117 -78 -181 -52 -104
43 -64 250 55 283 38 11 108 -3 132 -25z m1083 13 c0 -20 -13 -41 -25 -41 -14
0 -21 -29 -31 -125 -6 -54 -4 -65 8 -65 11 0 14 -7 10 -25 -4 -24 -8 -25 -68
-25 -61 0 -64 1 -64 24 0 15 7 26 19 29 13 3 20 18 25 58 4 30 10 71 13 92 4
30 2 37 -11 37 -17 0 -20 9 -10 34 5 12 21 16 70 16 35 0 64 -4 64 -9z m-642
-83 c7 -7 12 -25 12 -40 0 -31 -39 -62 -92 -73 -15 -4 -28 -11 -28 -16 0 -15
31 -23 49 -12 15 9 61 1 61 -11 0 -3 -10 -14 -22 -26 -30 -28 -100 -28 -129 1
-18 18 -21 30 -17 77 4 47 10 60 37 84 24 21 41 28 74 28 24 0 48 -5 55 -12z
m206 -1 c26 -19 17 -51 -17 -55 -15 -2 -27 1 -27 7 0 6 -8 11 -19 11 -22 0
-44 -47 -39 -81 3 -26 36 -39 48 -19 8 12 60 4 60 -10 0 -21 -55 -50 -96 -50
-34 0 -47 5 -63 26 -12 15 -21 37 -21 50 0 41 31 104 59 119 33 18 92 19 115
2z m533 -7 c-5 -20 -5 -20 20 0 31 24 76 26 93 5 10 -12 11 -29 2 -73 -8 -46
-8 -59 3 -68 24 -18 7 -54 -25 -54 -43 0 -54 21 -46 90 4 33 3 60 -1 60 -26
-1 -51 -42 -61 -103 -7 -39 -10 -42 -41 -45 -31 -3 -33 -1 -28 20 14 60 19
138 8 138 -12 0 -15 32 -4 43 3 4 24 7 46 7 34 0 39 -2 34 -20z"/>
<path d="M1916 1368 c-9 -13 -12 -24 -7 -26 16 -5 53 18 48 31 -6 20 -25 18
-41 -5z"/>
</g>
</svg>
