<?xml version="1.0" standalone="no"?>
<!DOCTYPE svg PUBLIC "-//W3C//DTD SVG 20010904//EN"
 "http://www.w3.org/TR/2001/REC-SVG-20010904/DTD/svg10.dtd">
<svg version="1.0" xmlns="http://www.w3.org/2000/svg"
 width="354.000000pt" height="283.000000pt" viewBox="0 0 354.000000 283.000000"
 preserveAspectRatio="xMidYMid meet">

<g transform="translate(0.000000,283.000000) scale(0.100000,-0.100000)"
fill="#000000" stroke="none">
<path d="M1620 2503 c-99 -15 -230 -52 -313 -88 -332 -146 -581 -435 -672
-780 -33 -123 -44 -327 -26 -455 38 -257 151 -482 336 -665 413 -412 1051
-459 1518 -112 548 406 635 1181 192 1700 -175 206 -420 344 -695 392 -77 13
-275 18 -340 8z m445 -88 c384 -112 676 -405 781 -785 38 -138 45 -363 15
-505 -63 -305 -233 -554 -491 -721 -281 -182 -647 -225 -967 -114 -557 193
-867 788 -707 1355 110 386 415 679 813 780 152 39 404 34 556 -10z"/>
<path d="M1287 1564 c-4 -4 -7 -90 -7 -191 0 -176 1 -183 20 -183 19 0 20 7
20 100 0 94 2 103 25 125 28 29 76 33 99 9 13 -12 16 -39 16 -125 0 -90 3
-109 15 -109 12 0 15 19 15 115 0 110 -1 117 -25 140 -28 29 -88 34 -122 10
-22 -15 -22 -15 -25 46 -3 57 -14 80 -31 63z"/>
<path d="M2000 1380 c0 -162 2 -190 15 -190 12 0 15 14 15 63 0 35 6 71 13 81
11 15 19 9 72 -64 37 -51 66 -80 78 -80 21 0 18 5 -66 117 -37 49 -41 73 -14
73 19 0 87 60 87 76 0 20 -19 18 -38 -5 -10 -10 -43 -32 -74 -50 l-58 -31 0
100 c0 82 -3 100 -15 100 -13 0 -15 -28 -15 -190z"/>
<path d="M1037 1539 c-35 -20 -47 -64 -47 -171 0 -116 17 -160 68 -179 46 -18
172 10 172 38 0 11 -6 14 -22 8 -38 -11 -116 -18 -141 -11 -35 8 -47 46 -47
152 0 89 2 97 26 121 23 23 31 25 77 20 29 -3 64 -9 80 -13 20 -5 27 -3 27 8
0 30 -151 52 -193 27z"/>
<path d="M2260 1370 c0 -153 2 -180 15 -180 13 0 15 27 15 180 0 153 -2 180
-15 180 -13 0 -15 -27 -15 -180z"/>
<path d="M1571 1453 c-29 -23 -44 -94 -36 -165 7 -61 29 -94 69 -104 34 -8
121 18 121 36 0 8 -7 13 -15 11 -8 -2 -36 -6 -62 -9 -52 -5 -78 8 -78 39 0 14
15 21 80 35 l80 17 0 54 c0 44 -5 58 -25 78 -30 31 -101 35 -134 8z m113 -29
c9 -8 16 -30 16 -49 0 -31 -3 -33 -47 -44 -27 -7 -56 -14 -65 -17 -16 -5 -18
2 -18 45 0 59 17 81 65 81 18 0 41 -7 49 -16z"/>
<path d="M1799 1444 c-20 -22 -24 -38 -27 -103 -6 -131 32 -174 136 -151 33 7
52 17 52 26 0 16 -10 17 -63 5 -57 -14 -75 -5 -88 43 -13 48 -6 141 13 163 12
15 78 14 122 -3 14 -5 17 -3 14 12 -4 21 -34 32 -94 33 -31 1 -46 -5 -65 -25z"/>
<path d="M2340 1330 c0 -118 2 -140 15 -140 12 0 15 16 15 80 0 120 28 170 94
170 44 0 56 -32 56 -147 0 -85 3 -103 15 -103 12 0 15 18 15 106 0 105 -8 137
-39 161 -22 17 -83 16 -107 -2 -25 -19 -34 -19 -34 0 0 8 -7 15 -15 15 -13 0
-15 -22 -15 -140z"/>
</g>
</svg>
