<?xml version="1.0" standalone="no"?>
<!DOCTYPE svg PUBLIC "-//W3C//DTD SVG 20010904//EN"
 "http://www.w3.org/TR/2001/REC-SVG-20010904/DTD/svg10.dtd">
<svg version="1.0" xmlns="http://www.w3.org/2000/svg"
 width="286.000000pt" height="216.000000pt" viewBox="0 0 286.000000 216.000000"
 preserveAspectRatio="xMidYMid meet">

<g transform="translate(0.000000,216.000000) scale(0.100000,-0.100000)"
fill="#000000" stroke="none">
<path d="M1323 1860 c-42 -59 -43 -60 -18 -60 21 0 25 -5 25 -29 0 -28 -3 -30
-42 -33 l-43 -3 -3 -412 -2 -413 115 0 115 0 0 80 0 80 65 0 65 0 0 -80 c0
-73 2 -80 20 -80 18 0 20 7 20 80 l0 80 60 0 60 0 0 -80 0 -80 110 0 110 0 0
330 c0 323 0 330 20 330 19 0 20 -7 20 -185 l0 -185 75 0 75 0 0 221 0 222
-95 -5 -95 -5 0 53 0 54 -40 0 c-38 0 -40 2 -40 29 0 24 5 30 24 33 24 3 24 3
-17 60 l-42 57 -250 0 -250 0 -42 -59z m227 -270 l0 -51 -107 3 -108 3 -3 48
-3 47 110 0 111 0 0 -50z m340 0 l0 -51 -107 3 -108 3 -3 48 -3 47 110 0 111
0 0 -50z m250 -170 l0 -190 -45 0 -45 0 0 159 c0 87 3 173 6 190 6 28 10 31
45 31 l39 0 0 -190z m-590 0 l0 -50 -110 0 -110 0 0 43 c0 24 3 47 7 50 3 4
53 7 110 7 l103 0 0 -50z m340 0 l0 -50 -110 0 -110 0 0 43 c0 24 3 47 7 50 3
4 53 7 110 7 l103 0 0 -50z m-340 -170 l0 -51 -107 3 -108 3 -3 48 -3 47 110
0 111 0 0 -50z m340 0 l0 -51 -107 3 -108 3 -3 48 -3 47 110 0 111 0 0 -50z"/>
<path d="M1015 1531 c-47 -12 -84 -40 -106 -83 -15 -30 -25 -38 -47 -38 -39 0
-90 -35 -109 -75 -9 -19 -14 -37 -12 -39 3 -3 27 6 54 19 68 33 85 32 50 -5
-33 -34 -44 -106 -25 -155 l13 -30 7 25 c23 81 80 137 128 125 41 -10 118 -98
138 -157 12 -39 15 -72 11 -135 l-5 -84 31 3 c39 4 50 37 43 133 -8 104 -31
160 -90 221 -28 28 -58 54 -66 56 -13 4 -13 7 -2 21 22 26 79 40 130 32 l47
-7 -24 26 c-13 14 -44 33 -68 42 -43 17 -66 14 -130 -12 -23 -10 -1 36 39 81
22 25 36 45 31 44 -4 -1 -22 -4 -38 -8z"/>
<path d="M620 380 l0 -280 40 0 40 0 0 95 c0 52 5 105 11 118 20 45 92 62 122
29 12 -14 17 -43 19 -127 l3 -110 38 -3 37 -3 0 123 c0 133 -12 172 -61 199
-36 19 -97 14 -129 -10 -16 -11 -32 -21 -36 -21 -4 0 -3 49 0 108 4 59 4 120
1 135 -6 24 -12 27 -46 27 l-39 0 0 -280z"/>
<path d="M1810 380 l0 -280 40 0 40 0 0 43 c0 44 22 87 43 87 7 0 32 -30 56
-65 42 -63 44 -65 87 -65 24 0 44 3 44 7 0 3 -27 42 -61 85 -33 44 -62 85 -65
92 -3 7 20 39 51 72 30 32 55 62 55 67 0 4 -18 7 -39 7 -36 0 -45 -6 -98 -65
-32 -36 -61 -65 -65 -65 -5 0 -8 81 -8 180 l0 180 -40 0 -40 0 0 -280z"/>
<path d="M305 591 c-151 -68 -196 -268 -91 -406 51 -67 178 -108 271 -88 38 8
40 10 43 52 3 35 0 43 -11 38 -63 -24 -95 -28 -134 -18 -151 41 -192 242 -68
337 30 23 47 28 93 28 32 1 69 -2 85 -7 26 -7 27 -6 27 32 0 47 -8 51 -103 51
-48 0 -85 -7 -112 -19z"/>
<path d="M2227 603 c-4 -3 -7 -118 -7 -255 l0 -248 40 0 40 0 0 255 0 255 -33
0 c-19 0 -37 -3 -40 -7z"/>
<path d="M1137 427 c-87 -27 -140 -123 -116 -209 29 -108 169 -160 279 -103
35 18 38 35 11 59 -18 16 -22 16 -50 2 -57 -30 -129 -15 -150 31 -6 13 -11 26
-11 28 0 3 59 5 130 5 l130 0 0 33 c0 107 -117 188 -223 154z m114 -87 c17
-16 28 -34 24 -40 -3 -5 -44 -10 -91 -10 -87 0 -98 6 -71 41 37 47 96 51 138
9z"/>
<path d="M1561 430 c-73 -17 -122 -76 -129 -153 -8 -95 49 -167 144 -183 50
-7 115 9 139 36 18 20 18 21 -3 42 -21 21 -22 21 -61 4 -55 -26 -107 -9 -128
42 -39 94 40 172 132 130 20 -9 31 -8 50 2 34 18 28 39 -15 61 -46 23 -87 29
-129 19z"/>
<path d="M2584 428 c-17 -4 -37 -15 -44 -23 -17 -21 -30 -19 -30 6 0 17 -5 20
-37 17 l-38 -3 -3 -162 -2 -163 40 0 40 0 0 95 c0 131 18 165 89 165 52 0 65
-28 66 -148 l0 -107 40 0 40 0 3 65 c6 112 -6 183 -36 219 -31 36 -81 52 -128
39z"/>
</g>
</svg>
