<?xml version="1.0" standalone="no"?>
<!DOCTYPE svg PUBLIC "-//W3C//DTD SVG 20010904//EN"
 "http://www.w3.org/TR/2001/REC-SVG-20010904/DTD/svg10.dtd">
<svg version="1.0" xmlns="http://www.w3.org/2000/svg"
 width="304.000000pt" height="75.000000pt" viewBox="0 0 304.000000 75.000000"
 preserveAspectRatio="xMidYMid meet">

<g transform="translate(0.000000,75.000000) scale(0.100000,-0.100000)"
fill="#000000" stroke="none">
<path d="M680 585 c0 -38 3 -45 20 -45 19 0 20 -7 20 -155 0 -148 -1 -155 -20
-155 -17 0 -20 -7 -20 -45 l0 -45 95 0 95 0 0 45 c0 41 -2 45 -25 45 -24 0
-25 3 -25 59 0 61 7 73 48 86 16 5 30 1 43 -11 16 -15 19 -31 19 -121 l0 -104
73 3 72 3 3 42 c3 40 1 43 -22 43 -26 0 -26 1 -26 73 0 114 -37 166 -118 167
-18 0 -46 -7 -62 -15 l-30 -16 0 96 0 95 -70 0 -70 0 0 -45z"/>
<path d="M1837 623 c-4 -3 -7 -24 -7 -45 0 -34 3 -38 25 -38 l25 0 0 -155 0
-155 -26 0 c-23 0 -25 -3 -22 -43 l3 -42 88 -3 87 -3 0 46 c0 33 -4 45 -15 45
-9 0 -15 9 -15 25 0 19 5 25 23 25 17 0 38 -19 76 -70 52 -68 55 -70 97 -70
l44 0 0 50 c0 49 -1 50 -29 50 -22 0 -37 9 -57 35 l-26 35 26 35 c20 26 35 35
57 35 28 0 29 2 29 45 l0 46 -82 -3 -83 -3 -3 -35 c-5 -70 -10 -80 -42 -80
l-30 0 0 140 0 140 -68 0 c-38 0 -72 -3 -75 -7z"/>
<path d="M345 606 c-147 -64 -192 -264 -87 -386 52 -62 101 -83 182 -78 82 4
139 38 170 98 l20 39 -38 10 c-53 15 -57 14 -90 -19 -24 -24 -39 -30 -72 -30
-82 0 -127 63 -117 163 9 100 114 152 185 92 23 -19 41 -25 76 -25 l47 0 -3
53 -3 52 -40 6 c-22 3 -53 13 -70 22 -36 20 -118 21 -160 3z"/>
<path d="M2300 571 c0 -33 4 -40 23 -43 22 -3 22 -6 25 -150 l3 -148 -26 0
c-23 0 -25 -4 -25 -45 l0 -45 100 0 100 0 0 45 c0 41 -2 45 -25 45 l-25 0 0
150 0 150 25 0 c23 0 25 4 25 40 l0 40 -100 0 -100 0 0 -39z"/>
<path d="M1191 458 c-52 -28 -91 -91 -91 -147 0 -50 38 -121 79 -148 54 -36
182 -29 229 12 2 2 -4 16 -14 32 -10 15 -19 29 -20 31 -1 1 -21 -3 -46 -9 -24
-7 -56 -9 -70 -6 -28 7 -58 32 -58 48 0 5 51 9 116 9 l117 0 -5 51 c-12 120
-131 184 -237 127z m127 -85 l14 -23 -66 0 c-70 0 -80 9 -43 35 30 21 76 15
95 -12z"/>
<path d="M1601 470 c-111 -26 -163 -161 -99 -257 64 -96 219 -99 283 -5 13 19
22 39 20 43 -3 3 -21 10 -41 14 -28 5 -41 2 -58 -13 -32 -29 -61 -35 -94 -18
-32 17 -42 34 -42 72 0 38 16 61 52 73 26 9 38 8 70 -9 21 -11 54 -20 73 -20
l35 0 0 50 c0 49 -1 50 -31 50 -17 0 -38 4 -47 9 -28 14 -85 19 -121 11z"/>
<path d="M2540 425 c0 -38 3 -45 20 -45 18 0 20 -7 20 -75 0 -68 -2 -75 -20
-75 -17 0 -20 -7 -20 -45 l0 -46 98 3 97 3 3 43 c3 39 1 42 -22 42 -25 0 -26
2 -26 63 0 72 10 87 57 87 45 0 53 -21 53 -140 l0 -101 73 3 72 3 3 43 c3 39
1 42 -22 42 -26 0 -26 0 -26 86 0 84 -1 87 -34 120 -28 28 -42 34 -75 34 -23
0 -57 -7 -76 -14 -31 -13 -35 -13 -35 0 0 11 -16 14 -70 14 l-70 0 0 -45z"/>
</g>
</svg>
