<?xml version="1.0" standalone="no"?>
<!DOCTYPE svg PUBLIC "-//W3C//DTD SVG 20010904//EN"
 "http://www.w3.org/TR/2001/REC-SVG-20010904/DTD/svg10.dtd">
<svg version="1.0" xmlns="http://www.w3.org/2000/svg"
 width="283.000000pt" height="205.000000pt" viewBox="0 0 283.000000 205.000000"
 preserveAspectRatio="xMidYMid meet">

<g transform="translate(0.000000,205.000000) scale(0.100000,-0.100000)"
fill="#000000" stroke="none">
<path d="M890 1908 l-25 -73 -83 -3 -83 -3 63 -46 c35 -25 65 -47 66 -49 2 -1
-7 -39 -21 -83 -14 -45 -20 -78 -13 -74 6 4 34 24 63 45 29 21 56 38 61 38 5
0 27 -13 48 -28 21 -16 51 -36 66 -46 l27 -17 -27 81 c-23 70 -25 83 -12 90 8
5 39 27 69 49 l55 41 -85 0 -85 0 -24 75 c-13 41 -26 75 -29 75 -4 0 -17 -33
-31 -72z"/>
<path d="M1440 1905 l-24 -75 -84 0 -84 0 63 -46 c35 -26 66 -48 67 -50 2 -1
-7 -39 -21 -83 -14 -45 -20 -78 -13 -74 6 4 34 24 63 45 29 21 57 38 64 38 6
0 28 -13 48 -28 20 -16 48 -37 63 -46 l27 -17 -27 81 c-23 70 -25 83 -12 90 8
5 39 27 69 49 l55 41 -85 0 -85 0 -24 75 c-13 41 -26 75 -30 75 -4 0 -17 -34
-30 -75z"/>
<path d="M1990 1905 l-24 -75 -84 0 -84 0 63 -46 c35 -26 66 -48 68 -50 2 -2
-8 -39 -21 -83 -14 -45 -20 -78 -14 -74 6 4 34 24 63 45 29 21 57 38 63 38 6
0 34 -17 63 -38 29 -21 57 -41 63 -45 6 -4 0 30 -14 74 -21 68 -23 83 -11 89
8 5 38 27 68 49 l53 40 -83 3 -84 3 -25 73 c-14 39 -27 72 -31 72 -3 0 -16
-34 -29 -75z"/>
<path d="M1167 1424 l-23 -79 -85 -5 -84 -5 67 -48 67 -47 -25 -72 c-13 -39
-24 -75 -24 -80 0 -4 28 12 62 37 34 25 66 45 71 45 4 0 37 -21 73 -46 35 -25
64 -42 64 -37 0 5 -11 42 -24 81 l-24 71 65 48 66 48 -84 5 -83 5 -23 74 c-12
40 -24 75 -27 78 -3 3 -15 -30 -29 -73z"/>
<path d="M1717 1424 l-23 -79 -85 -5 -84 -5 67 -48 67 -47 -25 -72 c-13 -40
-23 -76 -22 -80 2 -4 30 13 62 38 33 24 64 44 68 44 5 0 38 -21 74 -46 35 -25
64 -42 64 -37 0 5 -11 42 -24 81 l-24 71 65 48 66 48 -83 5 -83 5 -23 73 c-12
41 -25 76 -27 79 -3 3 -16 -30 -30 -73z"/>
<path d="M477 809 c-91 -15 -111 -77 -105 -338 3 -141 7 -182 20 -207 34 -63
144 -85 209 -41 41 27 58 71 58 150 l1 57 -45 0 -45 0 0 -51 c0 -65 -13 -89
-48 -89 -50 0 -52 9 -52 216 0 162 3 195 16 208 17 18 42 20 63 7 7 -5 16 -32
19 -60 l5 -51 43 0 44 0 0 45 c0 114 -70 174 -183 154z"/>
<path d="M1505 810 c-98 -22 -105 -41 -105 -302 0 -150 4 -220 13 -238 33 -65
138 -91 205 -50 42 26 62 73 62 150 l0 60 -45 0 -45 0 0 -58 c0 -65 -11 -82
-52 -82 -42 0 -48 28 -48 218 0 181 8 214 50 220 32 5 50 -22 50 -75 l0 -43
45 0 45 0 0 51 c0 28 -7 65 -15 83 -25 52 -95 81 -160 66z"/>
<path d="M716 794 c-3 -9 -6 -141 -6 -294 0 -306 0 -304 62 -298 l33 3 3 128
3 127 54 0 54 0 3 -127 3 -128 45 0 45 0 3 303 2 302 -50 0 -50 0 0 -131 0
-130 -52 3 -53 3 -3 128 -3 127 -43 0 c-31 0 -46 -5 -50 -16z"/>
<path d="M1090 505 l0 -305 118 0 c64 0 123 4 130 9 8 5 12 22 10 42 l-3 34
-80 5 -80 5 0 85 0 85 63 3 62 3 0 39 0 39 -62 3 -63 3 -3 82 -3 82 83 3 83 3
0 40 0 40 -127 3 -128 3 0 -306z"/>
<path d="M1740 504 l0 -305 47 3 46 3 -2 78 c-2 79 13 151 31 145 6 -2 29 -53
52 -113 l42 -110 47 -3 c28 -2 47 1 47 7 0 6 -27 78 -60 161 -33 83 -60 159
-60 169 0 10 27 73 60 140 33 67 60 124 60 127 0 2 -21 4 -46 4 l-45 0 -56
-120 c-31 -66 -60 -120 -65 -120 -5 0 -9 48 -8 108 1 59 1 113 1 120 -1 8 -17
12 -46 12 l-45 0 0 -306z"/>
<path d="M2102 508 l3 -303 40 0 40 0 3 303 2 302 -45 0 -45 0 2 -302z"/>
<path d="M2262 508 l3 -303 40 0 40 0 3 210 4 210 57 -210 57 -210 47 -3 47
-3 0 305 0 306 -40 0 -40 0 0 -172 c0 -94 -2 -169 -5 -167 -2 3 -24 79 -48
170 l-44 164 -62 3 -61 3 2 -303z"/>
</g>
</svg>
